<svg width="18" height="24" viewBox="0 0 18 24" fill="none" xmlns="http://www.w3.org/2000/svg">
<path d="M2.81988 23.1769C2.08247 23.1749 1.3748 22.9037 0.846552 22.4206C0.586544 22.1818 0.3803 21.8963 0.240082 21.5812C0.0998628 21.2661 0.0285254 20.9277 0.030306 20.5862V4.41568C0.0317306 3.49463 0.422158 2.6117 1.11595 1.96057C1.80975 1.30944 2.75027 0.943274 3.73121 0.942383L14.276 0.942383C15.2557 0.945055 16.1943 1.31201 16.8866 1.96295C17.5788 2.61388 17.9683 3.49579 17.9697 4.41568V16.2707C17.9592 16.4944 17.8572 16.7056 17.6849 16.8604C17.5126 17.0152 17.2834 17.1016 17.0449 17.1016C16.8065 17.1016 16.5772 17.0152 16.4049 16.8604C16.2327 16.7056 16.1306 16.4944 16.1202 16.2707V4.41568C16.1197 3.95523 15.9247 3.51377 15.5779 3.18818C15.2311 2.86259 14.761 2.67948 14.2706 2.67903H3.73121C3.24082 2.67948 2.77065 2.86259 2.4239 3.18818C2.07714 3.51377 1.88213 3.95523 1.88165 4.41568V20.5862C1.87814 20.6967 1.89895 20.8067 1.94279 20.9093C1.98662 21.0119 2.05253 21.1049 2.13639 21.1825C2.32426 21.3517 2.57574 21.4444 2.83603 21.4402C2.95402 21.4419 3.07112 21.4208 3.18005 21.3782C3.28899 21.3356 3.38744 21.2724 3.46929 21.1926L8.34163 16.4914C8.42787 16.4083 8.53095 16.3423 8.64479 16.2972C8.75864 16.2521 8.88094 16.2289 9.00449 16.2289C9.12804 16.2289 9.25033 16.2521 9.36418 16.2972C9.47802 16.3423 9.58111 16.4083 9.66735 16.4914L14.5397 21.1926C14.6205 21.2723 14.718 21.3354 14.8261 21.378C14.9341 21.4206 15.0504 21.4418 15.1676 21.4402C15.4283 21.4412 15.6791 21.347 15.8672 21.1775C15.9526 21.0986 16.0198 21.004 16.0645 20.8997C16.1093 20.7954 16.1307 20.6835 16.1273 20.5711C16.1218 20.4538 16.1417 20.3368 16.1857 20.2269C16.2296 20.117 16.2969 20.0167 16.3833 19.9319C16.4697 19.8471 16.5735 19.7796 16.6885 19.7335C16.8034 19.6874 16.9271 19.6637 17.0521 19.6637C17.1771 19.6637 17.3008 19.6874 17.4157 19.7335C17.5307 19.7796 17.6345 19.8471 17.7209 19.9319C17.8073 20.0167 17.8745 20.117 17.9185 20.2269C17.9625 20.3368 17.9824 20.4538 17.9769 20.5711C17.9795 20.9131 17.9093 21.2522 17.7704 21.5683C17.6315 21.8845 17.4266 22.1714 17.1678 22.4122C16.6273 22.9078 15.8997 23.1822 15.1443 23.1752C14.7838 23.1743 14.4271 23.1054 14.0955 22.9726C13.7639 22.8398 13.4641 22.6458 13.214 22.4021L9 18.3426L4.79142 22.4037C4.54166 22.647 4.24246 22.8408 3.91152 22.9736C3.58058 23.1064 3.22463 23.1755 2.86473 23.1769H2.81988Z" fill="#707070"/>
</svg>
