<svg width="25" height="22" viewBox="0 0 25 22" fill="none" xmlns="http://www.w3.org/2000/svg">
<path d="M18.1404 0.995252C17.1145 1.00853 16.108 1.2591 15.21 1.72479C14.3119 2.19048 13.55 2.85691 12.9917 3.66508C12.7676 3.96342 12.5633 4.27452 12.38 4.59657C12.1968 4.27451 11.9925 3.96341 11.7683 3.66508C11.2483 2.90565 10.5471 2.27038 9.72026 1.80962C8.89339 1.34886 7.9636 1.07527 7.00456 1.01054C6.04552 0.945815 5.08361 1.09172 4.19506 1.4367C3.30651 1.78168 2.51576 2.31625 1.88547 2.99804C0.705491 4.29011 0.0676858 5.9418 0.0915263 7.64371C0.166312 9.74314 1.06013 11.7436 2.60304 13.2647C4.54499 15.2524 6.64713 17.0967 8.8908 18.7812C9.84159 19.5425 10.8247 20.3292 11.8723 21.1899L11.9046 21.2152C12.0357 21.3237 12.2044 21.3835 12.3791 21.3835C12.5538 21.3835 12.7225 21.3237 12.8536 21.2152L12.8859 21.1899C13.9336 20.3292 14.9166 19.5425 15.8674 18.7812C18.1117 17.0968 20.2145 15.2525 22.157 13.2647C23.6999 11.7436 24.5937 9.74314 24.6685 7.64371C24.6923 5.9418 24.0545 4.29011 22.8746 2.99804C22.2854 2.364 21.5574 1.85683 20.7404 1.51118C19.9234 1.16553 19.0365 0.989547 18.1404 0.995252ZM14.9328 17.752C14.113 18.4072 13.2698 19.0827 12.38 19.8087C11.483 19.0827 10.6471 18.4072 9.82724 17.752C4.83111 13.7548 1.52668 11.1153 1.52668 7.64371C1.5033 6.27103 2.01352 4.9374 2.96183 3.89247C3.4167 3.40328 3.97865 3.01204 4.60931 2.74547C5.23997 2.47889 5.92448 2.34326 6.61608 2.34785C7.41097 2.36564 8.18903 2.56649 8.88189 2.93274C9.57475 3.29899 10.1612 3.81944 10.5897 4.44834C11.0605 5.08108 11.4315 5.77437 11.6911 6.50672C11.737 6.64339 11.8281 6.76278 11.9512 6.84752C12.0743 6.93226 12.2229 6.97795 12.3755 6.97795C12.5281 6.97795 12.6768 6.93226 12.7999 6.84752C12.9229 6.76278 13.014 6.64339 13.0599 6.50672C13.3196 5.77438 13.6906 5.08109 14.1614 4.44834C14.5554 3.85525 15.0923 3.35737 15.7288 2.99482C16.3652 2.63228 17.0835 2.41522 17.8258 2.36113C18.568 2.30704 19.3133 2.41745 20.0018 2.68344C20.6902 2.94943 21.3025 3.36357 21.7892 3.89247C22.7375 4.9374 23.2477 6.27103 23.2244 7.64371C23.2333 11.1153 19.9289 13.7548 14.9328 17.752Z" fill="#707070"/>
</svg>
