<svg width="41" height="38" viewBox="0 0 41 38" fill="none" xmlns="http://www.w3.org/2000/svg">
<path d="M29.6715 9.46517C29.6715 14.5841 24.4439 18.7085 20.0973 18.7085C15.7214 18.7085 11.8153 14.7888 11.8153 9.96243C11.8153 4.58025 15.4277 0.953125 20.6847 0.953125C24.4439 0.953125 29.6715 4.63875 29.6715 9.46517Z" fill="#F79E25"/>
<path d="M31.9219 20.5174C26.4461 20.5174 24.9527 23.6251 20.3553 23.6251C16.4315 23.6251 14.3817 19.7844 9.05225 19.6672C8.9644 19.6672 8.87656 19.6672 8.78871 19.6672C3.7521 19.6379 0.0625 23.1267 0.0625 27.9642C0.0625 32.5085 3.63497 37.1701 8.81799 37.1701C15.2602 37.1701 17.5735 32.8604 21.4681 32.8604C25.2748 32.8604 26.6511 36.2906 31.9219 36.2906C36.6657 36.2906 40.0625 33.0656 40.0625 28.9024C40.0625 24.3874 36.7536 20.5174 31.9219 20.5174Z" fill="#F79E25"/>
</svg>
