<svg width="22" height="26" viewBox="0 0 22 26" fill="none" xmlns="http://www.w3.org/2000/svg">
<path d="M20.7252 11.8959C20.9738 12.0499 21.1789 12.2649 21.3212 12.5205C21.4635 12.776 21.5381 13.0636 21.5381 13.3561C21.5381 13.6486 21.4635 13.9362 21.3212 14.1918C21.1789 14.4473 20.9738 14.6623 20.7252 14.8164L3.38765 25.4848C3.12779 25.6447 2.83005 25.7325 2.52503 25.7392C2.22001 25.7458 1.91872 25.6712 1.65211 25.5228C1.38552 25.3745 1.16323 25.1578 1.00811 24.8951C0.852983 24.6324 0.770624 24.3331 0.769491 24.028V2.69109C0.769405 2.38541 0.850878 2.08525 1.0055 1.82157C1.16013 1.55789 1.38231 1.34024 1.64912 1.19108C1.91593 1.04192 2.21771 0.966647 2.52332 0.973031C2.82893 0.979415 3.1273 1.06722 3.38765 1.2274L20.7252 11.8959Z" fill="white"/>
</svg>
