<svg width="24" height="25" viewBox="0 0 24 25" fill="none" xmlns="http://www.w3.org/2000/svg">
<path d="M18.7794 15.7346C18.0751 15.7346 17.3794 15.8805 16.7421 16.1621C16.1049 16.4437 15.5418 16.8538 15.0928 17.3634L9.37017 14.3129C9.7377 13.3409 9.7377 12.2798 9.37017 11.3078L15.0928 8.25569C15.8575 9.11986 16.9392 9.68372 18.1247 9.83618C19.3102 9.98864 20.5134 9.71863 21.4974 9.07935C22.4814 8.44007 23.1748 7.47793 23.4407 6.3825C23.7067 5.28707 23.5259 4.1378 22.9342 3.16127C22.3425 2.18474 21.3826 1.45177 20.2439 1.10677C19.1051 0.761774 17.87 0.829787 16.782 1.29743C15.694 1.76508 14.832 2.59842 14.3659 3.63322C13.8998 4.66801 13.8635 5.82918 14.264 6.88791L8.54131 9.94012C7.91222 9.22747 7.06434 8.71433 6.11329 8.47072C5.16225 8.2271 4.1543 8.26486 3.22694 8.57882C2.29957 8.89278 1.49795 9.46763 0.931299 10.2251C0.364649 10.9825 0.0606079 11.8856 0.0606079 12.8112C0.0606079 13.7369 0.364649 14.6399 0.931299 15.3974C1.49795 16.1548 2.29957 16.7297 3.22694 17.0436C4.1543 17.3576 5.16225 17.3953 6.11329 17.1517C7.06434 16.9081 7.91222 16.395 8.54131 15.6823L14.264 18.7329C13.9243 19.6332 13.8986 20.6116 14.1905 21.5266C14.4825 22.4416 15.0769 23.2456 15.8879 23.8222C16.6989 24.3988 17.6843 24.7181 18.7014 24.7339C19.7185 24.7496 20.7146 24.461 21.5454 23.9099C22.3762 23.3587 22.9986 22.5737 23.3226 21.6682C23.6466 20.7628 23.6553 19.784 23.3474 18.8737C23.0396 17.9633 22.431 17.1686 21.6101 16.6045C20.7892 16.0405 19.7984 15.7363 18.7811 15.7362L18.7794 15.7346ZM18.7794 2.45954C19.3958 2.45921 19.9985 2.63058 20.5112 2.95195C21.0239 3.27332 21.4236 3.73023 21.6597 4.26493C21.8958 4.79963 21.9576 5.38807 21.8374 5.95579C21.7172 6.52351 21.4205 7.045 20.9846 7.45429C20.5487 7.86358 19.9932 8.14228 19.3886 8.25512C18.784 8.36797 18.1573 8.30987 17.5879 8.08821C17.0184 7.86655 16.5317 7.49131 16.1894 7.00989C15.8472 6.52848 15.6647 5.96253 15.6651 5.3837C15.666 4.60844 15.9944 3.86522 16.5782 3.31702C17.1621 2.76883 17.9537 2.46043 18.7794 2.45954ZM4.85478 15.7346C4.23883 15.7346 3.6367 15.5631 3.12456 15.2418C2.61242 14.9204 2.21322 14.4637 1.97751 13.9294C1.7418 13.3951 1.68018 12.8072 1.80035 12.2399C1.92051 11.6727 2.2171 11.1516 2.65264 10.7427C3.08818 10.3337 3.64309 10.0552 4.2472 9.94238C4.85131 9.82955 5.47755 9.88746 6.04661 10.1088C6.61567 10.3301 7.10198 10.7049 7.44418 11.1858C7.78639 11.6667 7.9691 12.232 7.9691 12.8104C7.96767 13.5855 7.63911 14.3285 7.05537 14.8766C6.47164 15.4247 5.6803 15.7332 4.85478 15.7346ZM18.7794 23.1595C18.163 23.1599 17.5603 22.9886 17.0476 22.6673C16.535 22.346 16.1353 21.8891 15.8992 21.3545C15.663 20.8199 15.6011 20.2316 15.7211 19.6639C15.8411 19.0962 16.1378 18.5748 16.5735 18.1654C17.0092 17.756 17.5644 17.4772 18.169 17.3642C18.7735 17.2511 19.4001 17.3089 19.9696 17.5303C20.5391 17.7518 21.0259 18.1268 21.3683 18.608C21.7108 19.0892 21.8936 19.6549 21.8936 20.2337C21.8931 21.0092 21.565 21.7529 20.9811 22.3015C20.3972 22.85 19.6054 23.1586 18.7794 23.1595Z" fill="#707070"/>
</svg>
